<?xml version="1.0" encoding="UTF-8"?>
<svg xmlns="http://www.w3.org/2000/svg" xmlns:xlink="http://www.w3.org/1999/xlink" width="20pt" height="20pt" viewBox="0 0 20 20" version="1.1">
<g id="surface1">
<path style=" stroke:none;fill-rule:nonzero;fill:rgb(30.196078%,30.196078%,30.196078%);fill-opacity:1;" d="M 6.386719 15.070312 L 4.523438 15.070312 C 4.320312 15.070312 4.152344 14.875 4.152344 14.632812 L 4.152344 8.183594 C 4.152344 7.945312 4.320312 7.746094 4.523438 7.746094 L 6.386719 7.746094 C 6.59375 7.746094 6.757812 7.945312 6.757812 8.183594 L 6.757812 14.632812 C 6.757812 14.875 6.59375 15.070312 6.386719 15.070312 Z M 6.386719 15.070312 "/>
<path style=" stroke:none;fill-rule:nonzero;fill:rgb(30.196078%,30.196078%,30.196078%);fill-opacity:1;" d="M 15.226562 8.859375 C 14.828125 8.460938 14.285156 8.234375 13.722656 8.238281 L 12.515625 8.238281 L 12.515625 5.511719 C 12.515625 5.179688 12.351562 4.867188 12.074219 4.683594 C 11.796875 4.496094 11.445312 4.464844 11.136719 4.589844 C 10.894531 4.691406 10.683594 4.863281 10.53125 5.078125 L 8.5 8.023438 C 7.914062 8.023438 7.441406 8.5 7.441406 9.082031 L 7.441406 13.875 C 7.441406 14.15625 7.550781 14.425781 7.75 14.625 L 7.929688 14.804688 C 8.152344 15.027344 8.414062 15.199219 8.703125 15.316406 C 8.984375 15.429688 9.289062 15.488281 9.59375 15.484375 L 13.722656 15.484375 C 14.894531 15.484375 15.847656 14.535156 15.847656 13.359375 L 15.847656 10.363281 C 15.847656 9.800781 15.625 9.257812 15.226562 8.859375 Z M 15.226562 8.859375 "/>
</g>
</svg>
